<svg xmlns="http://www.w3.org/2000/svg" viewBox="0 0 6926.37 6926.36"><defs><style>.cls-1{fill:#1ed761;}.cls-2{fill-rule:evenodd;}</style></defs><title>Risorsa 1</title><g id="Livello_2" data-name="Livello 2"><g id="Layer_1" data-name="Layer 1"><circle class="cls-1" cx="3463.18" cy="3463.18" r="3463.18"/><path class="cls-2" d="M5994.14,2784.43c-1,250.75-263.94,404.31-484.15,279.71-149.35-84.51-302.21-161.09-461.46-224.93-316.37-126.83-644.24-212.19-979.36-271.3a6190.42,6190.42,0,0,0-704.6-82.58c-245.7-14.76-491.57-16.5-737.64-3.76-281.94,14.59-561.66,45.55-837.68,105.17-101.85,22-202.52,49.74-303.25,76.65-61.77,16.51-122.64,18.61-184.17.61-134.67-39.4-227.5-160.06-231.5-301.35-3.88-137.25,80.8-264.83,213.84-308.69,97.41-32.11,197.37-57.34,297.38-80.46,247.59-57.23,498.65-92.61,751.72-115.71a6749.48,6749.48,0,0,1,807.26-24.71c663.65,19,1314.38,116,1944.14,333.46,256.76,88.65,503.91,198.68,738.8,335.73,83.74,48.86,140,117.72,161.36,213C5989.91,2737.86,5991.14,2761.34,5994.14,2784.43Z"/><path class="cls-2" d="M2859.23,3557.92c-395.56,1.66-800.76,50.69-1196.54,168.15-64.49,19.14-129.21,20.42-192.4-5.17-102.83-41.66-169.74-144.71-166.11-253.75,3.78-113.75,73.14-212.81,182.79-246.29,111.58-34.07,224.84-63.61,338.74-88.9,280.41-62.27,564.6-95.21,851.76-106.11,617.78-23.45,1221.27,56.47,1810,245.17,297.7,95.41,582.49,220.35,851.49,380.33,13.39,8,26.67,16.09,40,24.21,140.27,85.71,157,258.25,90.11,368.19-76.5,125.71-235.57,164.8-367.8,90.23-74.6-42.07-148.32-85.93-224.57-124.8-349.57-178.18-720.21-293.68-1104.81-366.48C3475.76,3586.66,3176.86,3559.27,2859.23,3557.92Z"/><path class="cls-2" d="M2921.08,4144.57c455.34,4.8,900.78,66.34,1333.08,212.13q357.68,120.62,682.42,313.28c18.72,11.15,37.73,22.14,55,35.28,87.26,66.29,109.92,186.23,53.77,280.7-54.47,91.63-170,128.46-268.87,84.84-19.85-8.76-38.44-20.53-57.18-31.64-366.51-217.27-762-351.82-1182.41-416.2-258-39.5-517.39-53.21-777.87-43-337,13.25-669.68,60-998.87,132.88-33.25,7.36-67.46,14-101.29,14.41A206.52,206.52,0,0,1,1453,4558.07c-18.94-103.79,32.47-201.07,127.67-239.34,20.09-8.08,41.54-13.24,62.75-18,269.27-60.45,541.05-106.16,816.06-129.43C2613,4158.31,2767.2,4153.22,2921.08,4144.57Z"/></g></g></svg>